<svg xmlns="http://www.w3.org/2000/svg" version="1.1" xmlns:xlink="http://www.w3.org/1999/xlink" xmlns:svgjs="http://svgjs.dev/svgjs" width="1000" height="623" viewBox="0 0 1000 623"><g transform="matrix(1,0,0,1,-0.6060606060606233,0.2522267206477409)"><svg viewBox="0 0 396 247" data-background-color="#1b4571" preserveAspectRatio="xMidYMid meet" height="623" width="1000" xmlns="http://www.w3.org/2000/svg" xmlns:xlink="http://www.w3.org/1999/xlink"><g id="tight-bounds" transform="matrix(1,0,0,1,0.2400000000000091,-0.09999999999999432)"><svg viewBox="0 0 395.52 247.2" height="247.2" width="395.52"><g><svg></svg></g><g><svg viewBox="0 0 395.52 247.2" height="247.2" width="395.52"><g transform="matrix(1,0,0,1,86.28608522072936,47.215199999999996)"><svg viewBox="0 0 222.94782955854126 152.7696" height="152.7696" width="222.94782955854126"><g><svg viewBox="0 0 222.94782955854126 152.7696" height="152.7696" width="222.94782955854126"><g><svg viewBox="0 0 222.94782955854126 152.7696" height="152.7696" width="222.94782955854126"><g><svg viewBox="0 0 222.94782955854126 152.7696" height="152.7696" width="222.94782955854126"><g id="textblocktransform"><svg viewBox="0 0 222.94782955854126 152.7696" height="152.7696" width="222.94782955854126" id="textblock"><g><svg viewBox="0 0 222.94782955854126 152.7696" height="152.7696" width="222.94782955854126"><g transform="matrix(1,0,0,1,0,0)"><svg width="222.94782955854126" viewBox="4.440000057220459 -38.15999984741211 55.69000244140625 38.15999984741211" height="152.7696" data-palette-color="#ffffff"><path d="M4.44 0L4.44-38.16 12.23-38.16 12.23 0 4.44 0ZM22.09 0L22.09-38.16 42.48-38.16Q46.21-38.16 48.98-37.37 51.76-36.57 53.59-35.18 55.42-33.79 56.31-31.87 57.2-29.96 57.2-27.73L57.2-27.73Q57.2-24.1 54.9-21.36L54.9-21.36Q57.54-19.8 58.84-17.31 60.13-14.82 60.13-11.65L60.13-11.65Q60.13-8.98 59.24-6.84 58.35-4.69 56.53-3.16 54.71-1.64 51.94-0.82 49.17 0 45.41 0L45.41 0 22.09 0ZM29.83-23.51L45.46-23.51Q46.46-23.51 47.41-23.44L47.41-23.44Q49.05-25 49.05-27L49.05-27Q49.05-29.08 47.42-30.21 45.8-31.35 42.67-31.35L42.67-31.35 29.83-31.35 29.83-23.51ZM29.83-6.74L45.6-6.74Q48.73-6.74 50.35-8.08 51.98-9.42 51.98-11.87L51.98-11.87Q51.98-14.31 50.35-15.67 48.73-17.04 45.6-17.04L45.6-17.04 29.83-17.04 29.83-6.74Z" opacity="1" transform="matrix(1,0,0,1,0,0)" fill="#ffffff" class="undefined-text-0" data-fill-palette-color="primary" id="text-0"></path></svg></g></svg></g></svg></g></svg></g></svg></g></svg></g></svg></g><g><path d="M235.074 0c68.262 0 123.6 55.338 123.6 123.6 0 68.262-55.338 123.6-123.6 123.6-30.402 0-58.24-10.976-79.768-29.183l11.147 0c19.26 14.022 42.974 22.294 68.621 22.295 64.458 0 116.712-52.254 116.711-116.712 0-64.458-52.254-116.712-116.711-116.712-25.647 0-49.361 8.272-68.621 22.295l-11.147 0c21.528-18.206 49.366-29.183 79.768-29.183z" fill="#ffffff" stroke="transparent" data-fill-palette-color="tertiary"></path></g></svg></g><defs></defs></svg><rect width="395.52" height="247.2" fill="none" stroke="none" visibility="hidden"></rect></g></svg></g></svg>